<svg width="17" height="18" viewBox="0 0 17 18" fill="none" xmlns="http://www.w3.org/2000/svg">
<path fill-rule="evenodd" clip-rule="evenodd" d="M13.1832 0.768759C10.0957 0.423679 6.9043 0.423679 3.81673 0.768759C1.99035 0.972879 0.515454 2.41153 0.300604 4.24849C-0.0686259 7.40544 -0.0686259 10.5946 0.300604 13.7515C0.515454 15.5884 1.99035 17.0271 3.81673 17.2312C6.9043 17.5763 10.0957 17.5763 13.1832 17.2312C15.0096 17.0271 16.4845 15.5884 16.6994 13.7515C17.0686 10.5946 17.0686 7.40544 16.6994 4.24849C16.4845 2.41153 15.0096 0.972879 13.1832 0.768759ZM3.98334 2.25948C6.9602 1.92677 10.0398 1.92677 13.0166 2.25948C14.1611 2.38738 15.0771 3.29063 15.2095 4.42274C15.5652 7.46384 15.5652 10.5361 15.2095 13.5772C15.0771 14.7093 14.1611 15.6126 13.0166 15.7405C10.0398 16.0732 6.9602 16.0732 3.98334 15.7405C2.83891 15.6126 1.92286 14.7093 1.79045 13.5772C1.43476 10.5361 1.43476 7.46384 1.79045 4.42274C1.92286 3.29063 2.83891 2.38738 3.98334 2.25948ZM11.1856 9.56016C10.9167 9.21547 10.5606 8.99645 10.1172 8.90309C10.5097 8.78819 10.8222 8.58353 11.0548 8.28911C11.2946 7.99468 11.4145 7.62485 11.4145 7.17962C11.4145 6.57641 11.1929 6.09886 10.7495 5.74699C10.3135 5.39511 9.70663 5.21918 8.92899 5.21918H5.48413V12.7809H9.04891C9.84834 12.7809 10.4697 12.5978 10.9131 12.2315C11.3636 11.8581 11.5889 11.3554 11.5889 10.7235C11.5889 10.2855 11.4545 9.89768 11.1856 9.56016ZM8.56924 8.27833H7.34828V6.6949H8.56924C8.87448 6.6949 9.10705 6.76312 9.26693 6.89956C9.43409 7.036 9.51767 7.23348 9.51767 7.492C9.51767 7.75052 9.43409 7.948 9.26693 8.08444C9.10705 8.2137 8.87448 8.27833 8.56924 8.27833ZM9.64743 10.3261C9.64743 10.9637 9.03523 11.0186 8.72186 11.0186H7.34828V9.62479H8.70006C9.33251 9.62479 9.64743 9.82287 9.64743 10.3261Z" fill="#343A40"/>
</svg>
