<svg width="18" height="18" viewBox="0 0 18 18" fill="none" xmlns="http://www.w3.org/2000/svg">
<path fill-rule="evenodd" clip-rule="evenodd" d="M13.7893 0.768759C10.7018 0.423679 7.51038 0.423679 4.42281 0.768759C2.59643 0.972879 1.12153 2.41153 0.906683 4.24849C0.537453 7.40544 0.537453 10.5946 0.906683 13.7515C1.12153 15.5884 2.59643 17.0271 4.42281 17.2312C7.51038 17.5763 10.7018 17.5763 13.7893 17.2312C15.6157 17.0271 17.0906 15.5884 17.3055 13.7515C17.6747 10.5946 17.6747 7.40544 17.3055 4.24849C17.0906 2.41153 15.6157 0.972879 13.7893 0.768759ZM4.58942 2.25948C7.56628 1.92677 10.6459 1.92677 13.6227 2.25948C14.7672 2.38738 15.6832 3.29063 15.8156 4.42274C16.1713 7.46384 16.1713 10.5361 15.8156 13.5772C15.6832 14.7093 14.7672 15.6126 13.6227 15.7405C10.6459 16.0732 7.56628 16.0732 4.58942 15.7405C3.44499 15.6126 2.52894 14.7093 2.39653 13.5772C2.04084 10.5361 2.04084 7.46384 2.39653 4.42274C2.52894 3.29063 3.44499 2.38738 4.58942 2.25948ZM11.594 10.9765H8.61409V5.21918H6.61804V12.7809H11.594V10.9765Z" fill="#343A40"/>
</svg>
