<svg width="18" height="14" viewBox="0 0 18 14" fill="none" xmlns="http://www.w3.org/2000/svg">
<path d="M7.30086 -3.05176e-05C5.54135 -3.05176e-05 4.11499 1.42633 4.11499 3.18584C4.11499 4.94535 5.54135 6.37172 7.30086 6.37172C9.0604 6.37172 10.4867 4.94535 10.4867 3.18584C10.4867 1.42633 9.0604 -3.05176e-05 7.30086 -3.05176e-05Z" fill="#343A40"/>
<path d="M3.90255 8.07085C2.14304 8.07085 0.716675 9.49718 0.716675 11.2567V12.2663C0.716675 12.9062 1.18044 13.4517 1.812 13.5549C5.44714 14.1484 9.15448 14.1484 12.7896 13.5549C13.4212 13.4517 13.885 12.9062 13.885 12.2663V11.2567C13.885 9.49718 12.4586 8.07085 10.6991 8.07085H10.4095C10.2527 8.07085 10.097 8.09565 9.94798 8.14425L9.21268 8.38442C7.97036 8.79 6.63127 8.79 5.38894 8.38442L4.65362 8.14425C4.50463 8.09565 4.34888 8.07085 4.19214 8.07085H3.90255Z" fill="#343A40"/>
<path d="M14.5221 2.12389C14.874 2.12389 15.1593 2.40916 15.1593 2.76106V4.2478H16.646C16.9979 4.2478 17.2832 4.53308 17.2832 4.88498C17.2832 5.23688 16.9979 5.52215 16.646 5.52215H15.1593V7.00889C15.1593 7.36078 14.874 7.64607 14.5221 7.64607C14.1702 7.64607 13.8849 7.36078 13.8849 7.00889V5.52215H12.3982C12.0463 5.52215 11.761 5.23688 11.761 4.88498C11.761 4.53308 12.0463 4.2478 12.3982 4.2478H13.8849V2.76106C13.8849 2.40916 14.1702 2.12389 14.5221 2.12389Z" fill="#343A40"/>
</svg>
